# xmcd
#
# Track frame offsets: 
#        187
#        19582
#        39187
#        56907
#        75365
#        100660
#        118235
#        138742
#        153582
#        171170
#
# Disc length: 2590 seconds
#
# Revision: 2
# Processed by: cddbd v1.5.1PL0 Copyright (c) Steve Scherf et al.
# Submitted via: ExactAudioCopy v0.95a4
#
DISCID=7b0a1c0a
DTITLE=Diana Ross - Workin' Overtime
DYEAR=1989
DGENRE=Soul
TTITLE0=Workin' Overtime
TTITLE1=Say We Can
TTITLE2=Take the Bitter With the Sweet
TTITLE3=Bottom Line
TTITLE4=This House
TTITLE5=Paradise
TTITLE6=Keep On (Dancin')
TTITLE7=What Can One Person Do
TTITLE8=Goin' Through the Motions
TTITLE9=We Stand Together
EXTD=
EXTT0=
EXTT1=
EXTT2=
EXTT3=
EXTT4=
EXTT5=
EXTT6=
EXTT7=
EXTT8=
EXTT9=
PLAYORDER=
